<svg width="1403" height="162" viewBox="0 0 1403 162" fill="none" xmlns="http://www.w3.org/2000/svg">
<path d="M-0.000241697 16.968V142.128H44.0158C71.3998 142.128 94.0798 132.216 94.0798 101.304C94.0798 71.568 71.2318 58.464 44.6878 58.464H30.0718V16.968H-0.000241697ZM30.0718 82.152H43.1758C57.7918 82.152 64.8478 89.04 64.8478 101.304C64.8478 113.904 56.7838 118.272 42.3358 118.272H30.0718V82.152ZM130.941 14.616C113.301 14.616 102.549 27.72 102.549 43.68C102.549 63.84 118.341 74.76 155.637 78.792C154.965 86.52 150.933 91.056 141.189 91.056C133.629 91.056 125.733 88.032 116.157 82.656L105.741 102.312C118.341 109.872 131.949 114.912 146.901 114.912C171.597 114.912 185.541 101.136 185.541 71.232V16.968H161.181L159.165 26.544H158.325C150.429 19.488 141.525 14.616 130.941 14.616ZM141.189 37.8C147.237 37.8 151.269 40.656 155.637 45.36V60.648C136.989 58.296 130.941 52.752 130.941 46.032C130.941 40.488 134.973 37.8 141.189 37.8ZM208.632 16.968V112.56H232.992L235.176 95.928H235.68C242.736 108.696 253.32 114.912 262.896 114.912C268.608 114.912 271.8 114.072 274.488 112.896L269.616 87.192C266.088 88.032 263.232 88.704 259.032 88.704C251.976 88.704 243.408 84.168 238.536 71.568V16.968H208.632ZM324.194 14.616C300.17 14.616 290.426 29.904 290.426 52.416V89.208H277.49V111.384L292.274 112.56L295.634 137.928H320.33V112.56H342.842V89.208H320.33V52.752C320.33 42.168 325.37 37.968 332.426 37.968C335.45 37.968 338.81 38.976 341.162 39.816L345.866 18.144C340.826 16.632 333.938 14.616 324.194 14.616ZM438.909 14.616C412.365 14.616 394.557 36.792 394.557 78.456C394.557 120.12 412.365 141.288 438.909 141.288C465.285 141.288 483.093 119.952 483.093 78.456C483.093 36.792 465.285 14.616 438.909 14.616ZM438.909 37.8C447.813 37.8 454.869 45.528 454.869 78.456C454.869 111.384 447.813 118.104 438.909 118.104C430.005 118.104 422.781 111.384 422.781 78.456C422.781 45.528 430.005 37.8 438.909 37.8ZM503.148 16.968V41.16H529.692V109.032H506.676V127.512C520.116 130.2 528.852 133.56 537.588 138.936H559.596V41.16H582.108V16.968H503.148ZM639.21 55.104V76.104H686.754V55.104H639.21ZM781.897 161.616L808.273 156.408L804.745 150.528H833.977L837.841 151.536L854.977 140.616C851.113 134.064 845.737 126.168 840.025 118.776H883.369V58.464H848.425V32.088C848.425 26.208 849.265 25.536 854.809 25.536C857.161 25.536 865.393 25.536 868.249 25.536C873.457 25.536 874.465 28.56 875.137 46.032C880.177 42.168 890.593 38.304 897.313 36.792C894.793 11.256 888.577 4.03202 870.601 4.03202C866.065 4.03202 854.977 4.03202 850.777 4.03202C828.265 4.03202 822.889 11.088 822.889 31.752V58.464C813.817 34.44 794.833 14.28 752.329 2.01602C749.809 8.23202 743.929 17.304 738.553 22.512C770.977 30.744 786.937 43.344 795.337 58.464H755.017V94.248L752.329 92.232C748.633 97.944 740.737 106.68 735.193 110.544C757.369 125.328 772.993 144.648 781.897 161.616ZM781.225 118.776H811.129C814.153 122.472 817.177 126.672 820.033 130.872H791.305C788.113 126.84 784.753 122.808 781.225 118.776ZM779.545 97.272V79.968H802.897C803.905 85.512 804.577 91.392 805.081 97.272H779.545ZM830.953 97.272C830.281 91.392 829.609 85.68 828.601 79.968H857.329V97.272H830.953ZM983.161 156.072L1007.52 161.952C1010.21 156.576 1013.23 149.856 1015.25 144.48H1064.81V122.304H953.929V92.232L953.761 84.336C968.713 89.208 970.225 95.088 970.225 102.48V117.096H1037.93V98.112C1037.93 94.248 1038.26 92.568 1040.45 92.568C1041.96 92.568 1045.99 92.568 1047.67 92.568C1050.7 92.568 1055.57 92.904 1057.92 93.912C1058.42 87.528 1058.93 78.288 1059.77 72.408C1056.74 71.064 1052.38 70.896 1048.18 70.896C1045.82 70.896 1041.46 70.896 1038.77 70.896C1018.94 70.896 1014.41 78.456 1014.07 96.6H992.401C991.393 85.848 986.857 75.6 973.921 68.544H1032.72L1036.92 69.384L1051.37 63.168C1045.82 47.544 1037.26 35.616 1026.34 26.544C1036.75 24.192 1048.85 22.68 1062.62 22.176C1057.92 17.136 1052.04 7.39202 1049.18 1.00802C1029.86 2.68802 1014.24 6.04802 1001.3 11.76C988.537 6.55202 973.921 3.02402 957.961 0.672017C955.945 6.72002 951.577 15.792 947.713 21C958.969 22.008 969.385 23.856 978.793 26.376C972.913 31.92 967.705 38.64 963.169 46.368L971.233 48.384H959.137V68.544H961.993C959.641 71.904 956.617 75.936 953.593 78.96C952.585 52.584 947.713 20.328 930.409 1.69873e-05C926.209 4.20002 915.793 11.424 910.081 14.112C919.993 25.704 925.033 40.32 927.553 55.104L911.089 45.192L904.369 67.872C911.089 70.728 920.161 75.264 929.905 80.136L930.073 92.4V96.768L916.801 90.72C914.449 98.952 908.569 112.224 903.697 122.136L923.017 130.368L930.073 116.76V144.48H987.865C986.353 148.512 984.673 152.544 983.161 156.072ZM1017.94 48.384H986.353C990.385 43.344 995.425 38.976 1001.47 35.448C1007.86 39.144 1013.4 43.344 1017.94 48.384ZM1073.71 31.248C1089.67 33.096 1113.19 36.792 1135.37 40.152L1136.88 18.648C1116.38 14.616 1094.54 10.92 1077.24 7.72802L1073.71 31.248ZM1139.4 153.048H1228.27V6.38402H1204.92V13.272H1161.58V4.87202H1139.4V103.488C1132.01 93.24 1123.44 82.992 1114.37 73.584L1135.03 76.44C1134.86 70.224 1135.37 60.984 1136.04 55.944C1093.7 48.888 1085.98 46.872 1080.77 44.184C1079.59 48.552 1076.06 59.472 1073.54 65.352C1078.25 66.528 1082.11 69.552 1087.82 74.928C1090.51 77.28 1095.38 82.656 1101.1 89.544C1087.32 88.032 1082.95 86.856 1079.93 85.512C1078.75 90.216 1074.72 101.808 1072.03 108.192C1076.06 109.2 1079.09 112.392 1083.12 117.768C1087.15 122.808 1098.74 142.464 1105.46 161.448L1129.32 151.536C1122.6 137.256 1113.19 122.304 1103.78 109.704L1116.72 110.544C1118.9 114.072 1121.09 117.6 1123.1 121.128L1139.4 109.872V153.048ZM1171.82 35.784V69.552H1161.58V35.784H1171.82ZM1194.17 35.784H1204.92V69.552H1194.17V35.784ZM1171.82 92.064V128.352H1161.58V92.064H1171.82ZM1194.17 92.064H1204.92V128.352H1194.17V92.064ZM1372.92 118.104H1332.26L1328.57 110.712H1364.69V64.008C1366.54 64.176 1367.88 64.68 1369.22 66.528C1371.41 69.888 1372.42 83.328 1372.92 118.104ZM1249.44 153.048H1300.01V111.72C1309.42 124.992 1316.98 142.968 1321.51 160.608L1346.21 154.896C1344.7 149.856 1343.18 144.816 1341.34 139.776H1396.27C1396.27 139.776 1396.27 133.224 1396.1 130.368C1395.26 78.624 1394.09 58.296 1389.55 51.744C1387.37 48.384 1385.02 46.368 1382.33 45.192C1387.54 41.664 1396.27 38.304 1402.15 36.96C1399.46 11.592 1392.91 3.69602 1372.42 3.69602C1366.87 3.69602 1346.88 3.69602 1341.67 3.69602C1317.98 3.69602 1310.76 10.08 1310.76 33.6V90.72C1307.74 93.24 1303.7 96.096 1300.01 98.784V25.2C1300.01 15.624 1299 9.24002 1293.46 5.37602C1288.08 1.51202 1281.53 1.00802 1271.95 1.00802C1271.62 7.05602 1269.1 17.472 1266.41 23.352C1270.27 23.184 1274.81 23.184 1276.49 23.184C1278.17 23.184 1278.67 23.856 1278.67 25.704V54.264H1268.76C1267.58 34.944 1264.73 15.12 1259.35 0.336016C1255.32 3.69602 1245.91 8.73602 1240.7 10.584C1248.94 33.6 1249.44 67.368 1249.44 91.728V153.048ZM1381.49 44.688C1379.98 44.016 1378.3 43.68 1376.62 43.344C1371.91 42.336 1364.86 42.168 1357.13 42.336C1356.96 46.2 1355.95 51.072 1354.61 55.608H1333.61V33.768C1333.61 25.536 1334.95 24.36 1344.36 24.36C1348.56 24.36 1365.53 24.36 1370.4 24.36C1378.46 24.36 1380.14 27.552 1381.49 44.688ZM1333.61 89.88V76.44H1342.18V89.88H1333.61ZM1269.94 131.04V115.248H1278.67V131.04H1269.94ZM1269.94 93.24V91.896L1269.77 76.776H1278.67V93.24H1269.94Z" fill="url(#paint0_linear_1_65)" fill-opacity="0.4"/>
<defs>
<linearGradient id="paint0_linear_1_65" x1="676.536" y1="139.968" x2="677.145" y2="62.8754" gradientUnits="userSpaceOnUse">
<stop stop-color="white" stop-opacity="0"/>
<stop offset="1" stop-color="#4FCDFF" stop-opacity="0.6"/>
</linearGradient>
</defs>
</svg>
