<svg width="1235" height="162" viewBox="0 0 1235 162" fill="none" xmlns="http://www.w3.org/2000/svg">
<path d="M-0.000241697 16.6321V141.792H44.0158C71.3998 141.792 94.0798 131.88 94.0798 100.968C94.0798 71.2321 71.2318 58.1281 44.6878 58.1281H30.0718V16.6321H-0.000241697ZM30.0718 81.8161H43.1758C57.7918 81.8161 64.8478 88.7041 64.8478 100.968C64.8478 113.568 56.7838 117.936 42.3358 117.936H30.0718V81.8161ZM130.941 14.2801C113.301 14.2801 102.549 27.3841 102.549 43.3441C102.549 63.5041 118.341 74.4241 155.637 78.4561C154.965 86.1841 150.933 90.7201 141.189 90.7201C133.629 90.7201 125.733 87.6961 116.157 82.3201L105.741 101.976C118.341 109.536 131.949 114.576 146.901 114.576C171.597 114.576 185.541 100.8 185.541 70.8961V16.6321H161.181L159.165 26.2081H158.325C150.429 19.1521 141.525 14.2801 130.941 14.2801ZM141.189 37.4641C147.237 37.4641 151.269 40.3201 155.637 45.0241V60.3121C136.989 57.9601 130.941 52.4161 130.941 45.6961C130.941 40.1521 134.973 37.4641 141.189 37.4641ZM208.632 16.6321V112.224H232.992L235.176 95.5921H235.68C242.736 108.36 253.32 114.576 262.896 114.576C268.608 114.576 271.8 113.736 274.488 112.56L269.616 86.8561C266.088 87.6961 263.232 88.3681 259.032 88.3681C251.976 88.3681 243.408 83.8321 238.536 71.2321V16.6321H208.632ZM324.194 14.2801C300.17 14.2801 290.426 29.5681 290.426 52.0801V88.8721H277.49V111.048L292.274 112.224L295.634 137.592H320.33V112.224H342.842V88.8721H320.33V52.4161C320.33 41.8321 325.37 37.6321 332.426 37.6321C335.45 37.6321 338.81 38.6401 341.162 39.4801L345.866 17.8081C340.826 16.2961 333.938 14.2801 324.194 14.2801ZM438.909 14.2801C412.365 14.2801 394.557 36.4561 394.557 78.1201C394.557 119.784 412.365 140.952 438.909 140.952C465.285 140.952 483.093 119.616 483.093 78.1201C483.093 36.4561 465.285 14.2801 438.909 14.2801ZM438.909 37.4641C447.813 37.4641 454.869 45.1921 454.869 78.1201C454.869 111.048 447.813 117.768 438.909 117.768C430.005 117.768 422.781 111.048 422.781 78.1201C422.781 45.1921 430.005 37.4641 438.909 37.4641ZM497.1 16.6321V33.7681C527.34 61.9921 549.348 82.8241 549.348 99.9601C549.348 111.552 543.132 117.6 533.052 117.6C524.484 117.6 517.932 111.552 511.884 105.504L495.588 121.632C507.852 134.568 519.276 140.952 537.084 140.952C561.276 140.952 578.076 125.496 578.076 101.64C578.076 81.3121 559.092 59.6401 540.276 40.1521C546.492 40.9921 555.06 41.8321 560.772 41.8321H583.788V16.6321H497.1ZM639.21 54.7681V75.7681H686.754V54.7681H639.21ZM741.241 92.9041H803.065V125.16H749.977V150.36H886.225V125.16H830.617V92.9041H894.121V67.2001H830.617V0.672079H803.065V67.2001H741.241V92.9041ZM905.713 30.9121C921.673 32.7601 945.193 36.4561 967.369 39.8161L968.881 18.3121C948.385 14.2801 926.545 10.5841 909.241 7.39208L905.713 30.9121ZM971.401 152.712H1060.27V6.04808H1036.92V12.9361H993.577V4.53608H971.401V103.152C964.009 92.9041 955.441 82.6561 946.369 73.2481L967.033 76.1041C966.865 69.8881 967.369 60.6481 968.041 55.6081C925.705 48.5521 917.977 46.5361 912.769 43.8481C911.593 48.2161 908.065 59.1361 905.545 65.0161C910.249 66.1921 914.113 69.2161 919.825 74.5921C922.513 76.9441 927.385 82.3201 933.097 89.2081C919.321 87.6961 914.953 86.5201 911.929 85.1761C910.753 89.8801 906.721 101.472 904.033 107.856C908.065 108.864 911.089 112.056 915.121 117.432C919.153 122.472 930.745 142.128 937.465 161.112L961.321 151.2C954.601 136.92 945.193 121.968 935.785 109.368L948.721 110.208C950.905 113.736 953.089 117.264 955.105 120.792L971.401 109.536V152.712ZM1003.82 35.4481V69.2161H993.577V35.4481H1003.82ZM1026.17 35.4481H1036.92V69.2161H1026.17V35.4481ZM1003.82 91.7281V128.016H993.577V91.7281H1003.82ZM1026.17 91.7281H1036.92V128.016H1026.17V91.7281ZM1204.92 117.768H1164.26L1160.57 110.376H1196.69V63.6721C1198.54 63.8401 1199.88 64.3441 1201.22 66.1921C1203.41 69.5521 1204.42 82.9921 1204.92 117.768ZM1081.44 152.712H1132.01V111.384C1141.42 124.656 1148.98 142.632 1153.51 160.272L1178.21 154.56C1176.7 149.52 1175.18 144.48 1173.34 139.44H1228.27C1228.27 139.44 1228.27 132.888 1228.1 130.032C1227.26 78.2881 1226.09 57.9601 1221.55 51.4081C1219.37 48.0481 1217.02 46.0321 1214.33 44.8561C1219.54 41.3281 1228.27 37.9681 1234.15 36.6241C1231.46 11.2561 1224.91 3.36008 1204.42 3.36008C1198.87 3.36008 1178.88 3.36008 1173.67 3.36008C1149.98 3.36008 1142.76 9.74408 1142.76 33.2641V90.3841C1139.74 92.9041 1135.7 95.7601 1132.01 98.4481V24.8641C1132.01 15.2881 1131 8.90408 1125.46 5.04008C1120.08 1.17608 1113.53 0.672079 1103.95 0.672079C1103.62 6.72008 1101.1 17.1361 1098.41 23.0161C1102.27 22.8481 1106.81 22.8481 1108.49 22.8481C1110.17 22.8481 1110.67 23.5201 1110.67 25.3681V53.9281H1100.76C1099.58 34.6081 1096.73 14.7841 1091.35 7.89165e-05C1087.32 3.36008 1077.91 8.40008 1072.7 10.2481C1080.94 33.2641 1081.44 67.0321 1081.44 91.3921V152.712ZM1213.49 44.3521C1211.98 43.6801 1210.3 43.3441 1208.62 43.0081C1203.91 42.0001 1196.86 41.8321 1189.13 42.0001C1188.96 45.8641 1187.95 50.7361 1186.61 55.2721H1165.61V33.4321C1165.61 25.2001 1166.95 24.0241 1176.36 24.0241C1180.56 24.0241 1197.53 24.0241 1202.4 24.0241C1210.46 24.0241 1212.14 27.2161 1213.49 44.3521ZM1165.61 89.5441V76.1041H1174.18V89.5441H1165.61ZM1101.94 130.704V114.912H1110.67V130.704H1101.94ZM1101.94 92.9041V91.5601L1101.77 76.4401H1110.67V92.9041H1101.94Z" fill="url(#paint0_linear_2003_36)" fill-opacity="0.4"/>
<defs>
<linearGradient id="paint0_linear_2003_36" x1="594.783" y1="139.632" x2="595.474" y2="62.5409" gradientUnits="userSpaceOnUse">
<stop stop-color="white" stop-opacity="0"/>
<stop offset="1" stop-color="#4FCDFF" stop-opacity="0.6"/>
</linearGradient>
</defs>
</svg>
