<svg width="1717" height="318" viewBox="0 0 1717 318" fill="none" xmlns="http://www.w3.org/2000/svg">
<path d="M-4.76837e-06 303.934C-4.76837e-06 311.298 5.96953 317.267 13.3333 317.267C20.6971 317.267 26.6667 311.298 26.6667 303.934C26.6667 296.57 20.6971 290.6 13.3333 290.6C5.96953 290.6 -4.76837e-06 296.57 -4.76837e-06 303.934ZM369.833 303.934V306.434H370.917L371.658 305.642L369.833 303.934ZM457.833 209.934V207.434H456.749L456.008 208.225L457.833 209.934ZM818.333 209.934V212.434H819.484L820.232 211.56L818.333 209.934ZM907.833 105.434V102.934H906.683L905.935 103.807L907.833 105.434ZM1267.33 105.434V107.934H1268.39L1269.13 107.177L1267.33 105.434ZM1355.83 14.4337V11.9337H1354.78L1354.04 12.6907L1355.83 14.4337ZM1716.33 14.4337L1691.33 -4.1008e-05V28.8675L1716.33 14.4337ZM13.3333 303.934V306.434H369.833V303.934V301.434H13.3333V303.934ZM369.833 303.934L371.658 305.642L459.658 211.642L457.833 209.934L456.008 208.225L368.008 302.225L369.833 303.934ZM457.833 209.934V212.434H818.333V209.934V207.434H457.833V209.934ZM818.333 209.934L820.232 211.56L909.732 107.06L907.833 105.434L905.935 103.807L816.435 208.307L818.333 209.934ZM907.833 105.434V107.934H1267.33V105.434V102.934H907.833V105.434ZM1267.33 105.434L1269.13 107.177L1357.63 16.1767L1355.83 14.4337L1354.04 12.6907L1265.54 103.691L1267.33 105.434ZM1355.83 14.4337V16.9337H1693.83V14.4337V11.9337H1355.83V14.4337Z" fill="#4FCDFF"/>
</svg>
