<svg width="1437" height="61" viewBox="0 0 1437 61" fill="none" xmlns="http://www.w3.org/2000/svg">
<path d="M31.5598 59.22C31.4798 52.18 31.2398 46.8 30.8398 43.08H54.5398V35.64H33.2998C37.7398 22.76 45.2598 14.18 55.8598 9.9C53.8598 8.18 52.0798 5.92 50.5198 3.12C40.4398 7.76 32.9198 16.28 27.9598 28.68C24.1598 17 16.6398 8.48 5.39979 3.12C3.95979 5.56 2.15979 7.58 -0.000214815 9.18C11.7198 14.42 19.0198 23.24 21.8998 35.64H1.13979V43.08H23.0998C23.4198 45.92 23.6198 51.3 23.6998 59.22H31.5598ZM115.02 56.7V50.88H84.0598V56.7H115.02ZM92.6998 38.04H106.32V42.54H92.6998V38.04ZM112.68 47.88V32.82H86.6398V47.88H112.68ZM68.5798 48.18V59.22H74.6398V48.18H82.4398V22.5C82.4398 19.9 81.9398 18.18 80.9398 17.34C79.8998 16.5 78.3198 16.08 76.1998 16.08C76.1198 18.16 75.5998 20.12 74.6398 21.96V2.88H68.5798V41.88H65.9998V15.36H60.7198V48.18H68.5798ZM74.6398 22.08H76.8598C77.1798 22.08 77.3398 22.28 77.3398 22.68V41.88H74.6398V22.08ZM90.4198 10.38H96.0598V14.58H90.4198V10.38ZM102.12 14.58V10.38H108.18V14.58H102.12ZM96.0598 20.04V24.12H90.4198V20.04H96.0598ZM108.18 24.12H102.12V20.04H108.18V24.12ZM114.78 29.7V3.06H108.18V4.8H90.4198V3H84.0598V29.7H114.78ZM152.52 48.6L152.4 48.42C153.72 46.58 155.46 44.86 157.62 43.26C159.78 44.94 161.58 46.72 163.02 48.6H152.52ZM159.12 57.78C158.16 56.18 157.42 54.98 156.9 54.18H167.04L168.18 54.48L172.62 52.32C170.62 47.56 167.58 43.4 163.5 39.84C167.5 38.04 171.92 36.78 176.76 36.06C175.28 34.7 173.86 32.74 172.5 30.18C166.94 31.34 162.02 33.2 157.74 35.76C153.26 33.08 147.96 30.98 141.84 29.46C140.96 31.74 139.8 33.66 138.36 35.22C143.32 36.18 147.92 37.74 152.16 39.9C150.72 41.18 149.38 42.62 148.14 44.22C146.9 43.1 145.38 41.9 143.58 40.62C142.3 42.62 140.78 44.28 139.02 45.6C144.66 49.08 149 53.6 152.04 59.16L159.12 57.78ZM155.46 29.34V32.76H162.36V29.34H173.28V23.16H162.36V17.28H174.72V11.04H162.36V2.94H155.46V11.04L140.34 11.1C141.58 14.46 142.62 18.06 143.46 21.9L149.94 21.12L148.92 17.28H155.46V23.16H142.92V29.34H155.46ZM135.42 56.88L136.44 57.18L141.18 54.48C139.14 48.52 137.18 43.3 135.3 38.82C138.66 34.98 140.34 30.78 140.34 26.22C140.34 22.3 139.38 19.64 137.46 18.24C136.58 17.6 135.38 17.16 133.86 16.92C132.86 16.76 131.46 16.72 129.66 16.8C129.58 19.24 129.04 21.3 128.04 22.98C128.84 22.9 129.82 22.86 130.98 22.86C131.74 22.86 132.36 23.04 132.84 23.4C133.68 23.92 134.06 25.12 133.98 27C133.98 30.8 132.32 34.48 129 38.04C130.04 40.72 131.36 44.86 132.96 50.46H127.98V3.12H121.68V56.88H135.42ZM216.84 18.18C219.44 12.62 221.22 8.44 222.18 5.64L216.78 3.66C215.98 6.62 214.3 10.94 211.74 16.62L216.84 18.18ZM198.9 57C197.54 53.12 195.9 49.16 193.98 45.12V3H187.08V33C185.48 30.72 184.08 28.9 182.88 27.54C181.72 30.54 180.44 33.06 179.04 35.1C184.64 41.3 189 49.28 192.12 59.04L198.9 57ZM199.8 2.58C199.28 4.94 198.5 6.86 197.46 8.34C199.06 9.1 199.86 10.42 199.86 12.3L199.92 52.8L199.86 52.86C211.98 54.54 221.52 56.7 228.48 59.34L234.3 53.52C230.82 52.36 227.28 51.38 223.68 50.58C223.8 46.14 224.02 41.6 224.34 36.96H235.14V30.3H225C226.36 18.22 228 12.14 229.92 12.06C230.68 12.02 231.24 14.46 231.6 19.38C232.72 17.94 234.4 16.64 236.64 15.48C235.44 7.36 233.18 3.34 229.86 3.42C223.9 3.46 219.98 12.42 218.1 30.3H206.58V11.7L212.88 13.08C212.72 10.84 212.76 8.78 213 6.9C205.4 4.86 201 3.42 199.8 2.58ZM217.5 36.96C217.18 41.84 216.96 45.9 216.84 49.14C213.2 48.42 209.78 47.84 206.58 47.4V36.96H217.5ZM271.32 59.16C271.24 56 271.1 52.82 270.9 49.62C272.94 29.62 281.46 16.28 296.46 9.6C294.1 7.76 292.34 5.68 291.18 3.36C280.02 8.68 272.18 18.2 267.66 31.92C263.66 19 256.26 9.36 245.46 3C244.02 5.2 242.02 7.16 239.46 8.88C249.94 14.48 256.9 23.22 260.34 35.1C261.9 40.42 262.8 48.44 263.04 59.16H271.32ZM313.74 58.26C316.7 55.3 318.78 52.52 319.98 49.92L315.96 48.12H324.06V59.22H331.32V48.12H340.2L335.64 49.68C337.8 52.36 339.66 55.3 341.22 58.5L348.96 56.34C346.6 53.18 344.32 50.44 342.12 48.12H354.12V41.52H335.94C344.7 37.76 350.84 34.96 354.36 33.12L350.82 27.3C346.5 29.74 340 32.94 331.32 36.9V30.78H324.06V38.22C318.74 33.06 312.28 29.4 304.68 27.24C303.4 29.52 301.86 31.52 300.06 33.24C307.5 34.92 313.66 37.68 318.54 41.52H301.62V48.12H312.84C311.44 50.68 309.66 53.16 307.5 55.56L313.74 58.26ZM331.5 29.58C331.26 27.34 331.04 25.66 330.84 24.54H354.66V17.88H334.26C338.66 13.32 346 10.62 356.28 9.78C354.52 8.1 353.04 5.84 351.84 3C340.64 4.52 332.62 8.68 327.78 15.48C324.14 9.24 316 5.04 303.36 2.88C302.64 5.24 301.4 7.5 299.64 9.66C310.32 11.14 317.24 13.88 320.4 17.88H301.08V24.54H323.22C323.54 26.1 323.78 27.78 323.94 29.58H331.5ZM406.86 20.52C411.02 15.88 413.84 11.92 415.32 8.64L408.48 5.46C407.04 9.06 404.4 13.14 400.56 17.7L406.86 20.52ZM373.02 16.92C371.02 11.76 368.74 7.82 366.18 5.1L359.88 8.88C362.76 11.6 365.02 15.18 366.66 19.62L373.02 16.92ZM373.92 46.5H384.18V50.16H373.92V46.5ZM391.92 46.5H401.58V50.16H391.92V46.5ZM384.18 38.82V41.4H366.66V55.26H384.18V59.22H391.92V55.26H409.26V41.4H391.92V38.82H411.6V24.48H391.92V21.54H388.56C392.32 19.5 394.96 17.8 396.48 16.44L391.98 11.82C389.74 14.06 386.18 16.4 381.3 18.84V11.94C381.3 11.1 381.5 10.58 381.9 10.38C382.34 10.14 383.32 10.02 384.84 10.02H393.66C394.86 10.02 395.66 10.36 396.06 11.04C396.42 11.72 396.68 13.28 396.84 15.72C398.36 14.64 400.52 13.8 403.32 13.2C402.92 9.48 402.08 6.98 400.8 5.7C399.6 4.46 397.44 3.84 394.32 3.84H383.94C379.98 3.84 377.28 4.42 375.84 5.58C374.48 6.66 373.8 8.74 373.8 11.82V19.02H381.3L384.18 21.84V24.48H364.38V38.82H384.18ZM371.88 29.64H384.18V33.72H371.88V29.64ZM391.92 29.64H403.62V33.72H391.92V29.64ZM447.66 38.82H462.9V41.58H447.66V38.82ZM469.14 46.08V34.26H441.78V46.08H469.14ZM441.66 24.66H448.38V27.78H441.66V24.66ZM453.84 32.28V20.1H436.5V32.28H453.84ZM461.7 24.66H469.02V27.78H461.7V24.66ZM474.6 32.28V20.1H456.48V32.28H474.6ZM443.16 17.64V10.62H451.68V19.2H458.58V10.62H467.04V17.64H473.76V3H467.04V4.92H436.56V17.64H443.16ZM453.9 59.94C455.26 58.18 456.42 56.18 457.38 53.94H475.74V47.88H434.76V34.68C434.76 19.96 431.76 9.34 425.76 2.82C424.36 4.78 422.7 6.36 420.78 7.56C424.14 11.32 426.34 16.38 427.38 22.74L421.02 19.02L418.98 25.5C420.82 26.26 423.84 27.72 428.04 29.88L428.16 36.6L422.82 34.14C422.5 37.74 421.42 41.78 419.58 46.26L424.68 48.42C426.28 44.98 427.44 41.42 428.16 37.74V53.94H449.64C448.92 55.46 448.18 56.8 447.42 57.96L453.9 59.94ZM492.12 59.28V47.16H496.74V40.62H492.12V39.72C493.72 37.16 495.68 33.6 498 29.04V56.22H513.06V34.32C513.66 34.52 514.14 35.08 514.5 36C514.98 37.28 515.64 41.12 516.48 47.52H521.88L519.9 35.94H522.78C523.54 40.38 523.96 45.18 524.04 50.34H514.92V56.46H534.6V50.34H529.56C529.48 45.06 529.12 40.26 528.48 35.94H535.38L535.32 30.12H527.4L526.68 27.24H528.36V10.5C528.36 10.02 528.42 9.72 528.54 9.6C528.74 9.4 529.02 9.3 529.38 9.3H530.46C530.9 9.3 531.2 9.4 531.36 9.6C531.6 9.84 531.78 10.28 531.9 10.92C532.06 12.12 532.1 14.16 532.02 17.04C533.06 16.2 534.28 15.54 535.68 15.06C535.6 11.34 535.4 8.76 535.08 7.32C534.72 6 534.16 5.08 533.4 4.56C532.52 3.96 531.54 3.66 530.46 3.66H527.76C526.2 3.66 525.02 4.08 524.22 4.92C523.42 5.72 523.02 7.46 523.02 10.14V16.98C520.58 11.62 517.4 6.86 513.48 2.7C511.84 4.18 510.14 5.34 508.38 6.18C514.7 12.5 519.08 20.48 521.52 30.12H519.66C517.26 30.12 515.74 29.84 515.1 29.28C514.94 29.88 514.26 31.5 513.06 34.14V29.4H503.46V18.3L508.02 20.76C507.58 21.88 506.86 23.54 505.86 25.74L510.48 27.78C513.08 22.78 514.78 18.76 515.58 15.72L510.6 13.26L509.82 15.84C503.34 11.92 499.56 9.32 498.48 8.04C497.8 9.64 496.7 11.2 495.18 12.72C497.06 14.32 498 16.36 498 18.84V28.38L494.52 22.74C493.96 24.54 493.16 26.74 492.12 29.34V2.94H485.82V21.96C484.58 18.32 483.32 15.44 482.04 13.32C481.56 14.72 480.48 16.8 478.8 19.56C481.88 24.8 484.22 31.76 485.82 40.44V40.62H480.24V47.16H485.82V59.28H492.12ZM503.46 40.38V35.16H507.96V40.38H503.46ZM507.96 50.52H503.46V45.48H507.96V50.52ZM592.8 43.38C590.04 40.54 587.22 38.1 584.34 36.06L579.06 39.3C582.06 41.66 584.64 44.18 586.8 46.86L592.8 43.38ZM546.66 46.62C550.78 44.34 553.86 42.2 555.9 40.2L550.8 35.94C548.88 38.06 545.9 40.34 541.86 42.78L546.66 46.62ZM563.94 20.64V24.66H571.62V20.64H595.26V13.98H571.62V3H563.94V13.98H540.36V20.64H563.94ZM569.64 59.58C570.88 58.02 571.98 56.32 572.94 54.48H594.42V47.94H569.52C568.32 46.18 566.92 44.4 565.32 42.6L570.84 42.78C572.08 44.18 573.38 45.8 574.74 47.64L580.14 44.4C575.94 39.44 571.38 35 566.46 31.08L572.76 31.5C572.44 32.06 571.76 33.08 570.72 34.56L575.94 36.42C576.86 35.26 577.8 33.92 578.76 32.4L582.84 35.64C588.08 32.8 592.08 30.22 594.84 27.9L589.56 23.64C587.32 25.68 584.1 28 579.9 30.6C581.1 28.48 581.9 26.82 582.3 25.62L576.72 23.52C576.44 24.32 576.04 25.3 575.52 26.46C564.76 25.42 558.7 24.6 557.34 24C556.82 26.08 556.2 28 555.48 29.76C556.52 29.96 558.22 30.98 560.58 32.82C561.82 33.82 563.4 35.22 565.32 37.02C561.8 36.78 559.52 36.46 558.48 36.06C557.8 38.34 557.14 40.2 556.5 41.64C557.3 41.84 558.24 42.54 559.32 43.74C560.4 44.94 561.46 46.34 562.5 47.94H541.92V54.48H564.36L562.32 57.9L569.64 59.58ZM540.18 29.52C542.06 30.2 547.06 32.22 555.18 35.58L556.56 30.36L555.48 29.76C551.32 27.52 547.38 25.52 543.66 23.76L540.18 29.52ZM607.5 4.86C612.3 6.42 614.88 8.82 615.24 12.06L614.58 12C613.02 12 611.7 12.48 610.62 13.44C609.46 14.44 608.88 15.76 608.88 17.4C608.88 19.04 609.46 20.36 610.62 21.36C611.74 22.32 613.12 22.8 614.76 22.8C619.08 22.8 621.24 20.06 621.24 14.58C621.24 11.14 620.2 8.14 618.12 5.58C616.04 2.98 613.14 1.12 609.42 -1.90735e-06L607.5 4.86ZM688.8 41.7H705.06V44.7H688.8V41.7ZM688.8 49.32H705.06V52.26H688.8V49.32ZM711.96 57.42V36.6H682.26V57.42H711.96ZM689.4 25.38C689.08 23.06 688.7 21.02 688.26 19.26C689.46 16.06 691.22 13.72 693.54 12.24V27.96H679.32V33.78H715.02V27.96H700.32V22.74H711.78V17.1H700.32V10.08C701.64 9.96 703.02 9.9 704.46 9.9C710.82 9.9 714.88 9.94 716.64 10.02C715.64 8.34 714.98 6.24 714.66 3.72H704.22C699.78 3.72 696.28 4.26 693.72 5.34C690.56 6.7 688.04 9.1 686.16 12.54C684.48 8.54 682.34 5.36 679.74 3C678.22 4.6 676.46 6.04 674.46 7.32C679.14 11 681.94 17.28 682.86 26.16L689.4 25.38ZM672.84 59.22V47.88H678.84V41.28H672.84V32.28L678.24 33.72L679.2 27.24L672.84 25.38V11.28C672.84 8.08 672.04 6.02 670.44 5.1C669 4.18 666.22 3.72 662.1 3.72C661.86 6.04 661.24 8.24 660.24 10.32C662.76 10.24 664.44 10.24 665.28 10.32C665.92 10.32 666.24 10.66 666.24 11.34V23.46L660.72 21.9L659.16 28.8L666.24 30.54V41.28H659.76V47.88H666.24V59.22H672.84ZM736.26 37.2H759.6V40.5H736.26V37.2ZM767.16 45.3V32.4H729.06V45.3H767.16ZM750.24 59.7L752.64 53.64H774.3V47.58H721.08V53.64H744.24L742.8 57.9L750.24 59.7ZM760.5 21.9V8.52H764.46C765.26 8.52 765.66 8.86 765.66 9.54V24.12H729.72V2.94H722.7V30H772.92V9.48C772.92 6.72 771.9 4.94 769.86 4.14C768.38 3.62 765.16 3.36 760.2 3.36C759.88 4.96 759.2 6.66 758.16 8.46H740.94V6H734.28V21.9H760.5ZM740.94 13.44H754.2V16.92H740.94V13.44ZM797.7 56.82C796.94 53.94 795.98 51.12 794.82 48.36H804.12V59.28H811.68V48.36H832.02V41.34H811.68V30.72H829.68V23.76H811.68V11.64H835.08V4.62H780.84V11.64H804.12V23.76H787.74V30.72H804.12V41.34H791.64C789.8 37.78 787.94 34.86 786.06 32.58C784.14 34.18 781.98 35.62 779.58 36.9C784.38 42.14 787.94 49.34 790.26 58.5L797.7 56.82ZM873.84 56.1L872.7 54.72C878.5 49.2 886.46 45.44 896.58 43.44C894.66 41.64 892.94 39.34 891.42 36.54C887.66 37.58 884 39.06 880.44 40.98V37.2H854.64V41.16C850.68 39.08 846.84 37.46 843.12 36.3C841.96 39.02 840.56 41.32 838.92 43.2C852 46.2 861.74 51.88 868.14 60.24L873.84 56.1ZM875.88 43.68C873.16 45.48 870.56 47.66 868.08 50.22C865.48 47.9 862.5 45.72 859.14 43.68H875.88ZM864.48 33.72V12.06H851.04V7.2H844.44V33.72H864.48ZM851.04 18.3H857.7V27.48H851.04V18.3ZM891.42 33.66V17.22C891.42 14.06 890.52 12.02 888.72 11.1C887.36 10.38 884.4 10.02 879.84 10.02C879.68 11.9 879.06 14.06 877.98 16.5C879.5 16.46 881.34 16.44 883.5 16.44C884.14 16.44 884.46 16.74 884.46 17.34V27.3H876.18V2.82H869.1V33.66H891.42ZM938.88 15C943.88 13.16 949.48 10.74 955.68 7.74L950.58 2.94C945.98 5.66 940.42 8.28 933.9 10.8L938.88 15ZM937.44 27.42V22.68C937.44 13.68 930.04 7.1 915.24 2.94C913.92 4.98 912.28 6.82 910.32 8.46C918.4 10.3 923.96 12.74 927 15.78C928.92 17.66 929.88 20.02 929.88 22.86V27.42H937.44ZM928.26 36.06L928.62 40.32H912.36V38.28C912.36 22.48 910.06 10.92 905.46 3.6C903.66 5.08 901.56 6.28 899.16 7.2C903.24 13.56 905.28 23.92 905.28 38.28V55.38C923.24 56.06 936.88 57.48 946.2 59.64L951.84 53.88C947.24 52.88 942.22 52.06 936.78 51.42L936.42 46.62H955.26V40.32H935.82L935.22 36.06H951.72V14.52H944.1V29.46H922.62V15H915.42V36.06H928.26ZM929.1 50.58C923.98 50.1 918.4 49.72 912.36 49.44V46.62H928.98L929.1 50.58ZM975.06 46.2H1000.02V48.24H975.06V46.2ZM975.06 51.72H1000.02V53.76H975.06V51.72ZM1007.28 57.42V42.54H968.16V57.42H1007.28ZM1015.2 40.74V35.58H960.54V40.74H1015.2ZM973.8 22.2H984.24V24.3H973.8V22.2ZM991.2 22.2H1001.7V24.3H991.2V22.2ZM973.8 27.9H984.24V30H973.8V27.9ZM991.2 27.9H1001.7V30H991.2V27.9ZM984.24 9.6V11.82H965.82V16.38H984.24V18.36H967.08V33.78H1008.78V18.36H991.2V16.38H1009.92V11.82H991.2V9.6H1015.32V4.38H960.42V9.6H984.24ZM1027.5 4.86C1032.3 6.42 1034.88 8.82 1035.24 12.06L1034.58 12C1033.02 12 1031.7 12.48 1030.62 13.44C1029.46 14.44 1028.88 15.76 1028.88 17.4C1028.88 19.04 1029.46 20.36 1030.62 21.36C1031.74 22.32 1033.12 22.8 1034.76 22.8C1039.08 22.8 1041.24 20.06 1041.24 14.58C1041.24 11.14 1040.2 8.14 1038.12 5.58C1036.04 2.98 1033.14 1.12 1029.42 -1.90735e-06L1027.5 4.86ZM1109.82 42.72V22.44H1116.06V49.62C1110.86 48.94 1106.44 48.44 1102.8 48.12C1102.52 50.08 1101.88 52.06 1100.88 54.06C1112.92 55.18 1122.52 56.86 1129.68 59.1L1134.66 53.34C1131.62 52.42 1127.8 51.56 1123.2 50.76V40.44H1134.6V34.14H1123.2V22.44H1135.2V15.78H1103.1V42.72H1109.82ZM1083 30.48C1082.24 32.44 1081.32 34.22 1080.24 35.82C1081.52 36.18 1082.9 37.5 1084.38 39.78C1085.86 41.82 1087.6 45.1 1089.6 49.62H1080.06V55.92H1092.12L1094.4 56.82L1098.66 53.94C1096.18 48.34 1093.54 43.24 1090.74 38.64H1094.46L1095.66 38.76L1099.98 37.74C1099.14 29.1 1097.52 21.92 1095.12 16.2C1099.64 12.88 1106.84 11.18 1116.72 11.1C1127 11.1 1133.6 11.16 1136.52 11.28C1135.28 9.44 1134.38 7.1 1133.82 4.26H1116.48C1105.44 4.26 1097.26 6.24 1091.94 10.2C1089.86 7 1087.38 4.42 1084.5 2.46C1083.02 4.42 1081.22 6.06 1079.1 7.38C1082.22 9.3 1084.82 11.92 1086.9 15.24C1084.5 18.44 1082.52 22.48 1080.96 27.36L1086.54 29.34C1087.5 26.3 1088.66 23.76 1090.02 21.72C1091.18 24.88 1092.02 28.42 1092.54 32.34H1084.98C1083.66 31.62 1083 31 1083 30.48ZM1190.22 54.96C1184.5 48.76 1176.86 43.46 1167.3 39.06C1165.02 41.78 1163.06 43.76 1161.42 45C1170.74 48.32 1177.9 52.72 1182.9 58.2L1190.22 54.96ZM1151.16 36.66V59.04H1158.72V36.66H1194.78V29.46H1173.72C1178.04 20.34 1185.54 14.44 1196.22 11.76C1194.26 9.84 1192.58 7.54 1191.18 4.86C1179.5 8.66 1171.18 16.86 1166.22 29.46H1158.72V13.68L1171.62 16.5C1171.62 13.9 1171.84 11.58 1172.28 9.54C1159.68 6.5 1152.58 4.48 1150.98 3.48C1150.42 5.84 1149.5 7.88 1148.22 9.6C1150.18 10.6 1151.16 12.12 1151.16 14.16V29.46H1140.84V36.66H1151.16ZM1217.7 56.82C1216.94 53.94 1215.98 51.12 1214.82 48.36H1224.12V59.28H1231.68V48.36H1252.02V41.34H1231.68V30.72H1249.68V23.76H1231.68V11.64H1255.08V4.62H1200.84V11.64H1224.12V23.76H1207.74V30.72H1224.12V41.34H1211.64C1209.8 37.78 1207.94 34.86 1206.06 32.58C1204.14 34.18 1201.98 35.62 1199.58 36.9C1204.38 42.14 1207.94 49.34 1210.26 58.5L1217.7 56.82ZM1293.84 56.1L1292.7 54.72C1298.5 49.2 1306.46 45.44 1316.58 43.44C1314.66 41.64 1312.94 39.34 1311.42 36.54C1307.66 37.58 1304 39.06 1300.44 40.98V37.2H1274.64V41.16C1270.68 39.08 1266.84 37.46 1263.12 36.3C1261.96 39.02 1260.56 41.32 1258.92 43.2C1272 46.2 1281.74 51.88 1288.14 60.24L1293.84 56.1ZM1295.88 43.68C1293.16 45.48 1290.56 47.66 1288.08 50.22C1285.48 47.9 1282.5 45.72 1279.14 43.68H1295.88ZM1284.48 33.72V12.06H1271.04V7.2H1264.44V33.72H1284.48ZM1271.04 18.3H1277.7V27.48H1271.04V18.3ZM1311.42 33.66V17.22C1311.42 14.06 1310.52 12.02 1308.72 11.1C1307.36 10.38 1304.4 10.02 1299.84 10.02C1299.68 11.9 1299.06 14.06 1297.98 16.5C1299.5 16.46 1301.34 16.44 1303.5 16.44C1304.14 16.44 1304.46 16.74 1304.46 17.34V27.3H1296.18V2.82H1289.1V33.66H1311.42ZM1370.22 54.96C1364.5 48.76 1356.86 43.46 1347.3 39.06C1345.02 41.78 1343.06 43.76 1341.42 45C1350.74 48.32 1357.9 52.72 1362.9 58.2L1370.22 54.96ZM1331.16 36.66V59.04H1338.72V36.66H1374.78V29.46H1353.72C1358.04 20.34 1365.54 14.44 1376.22 11.76C1374.26 9.84 1372.58 7.54 1371.18 4.86C1359.5 8.66 1351.18 16.86 1346.22 29.46H1338.72V13.68L1351.62 16.5C1351.62 13.9 1351.84 11.58 1352.28 9.54C1339.68 6.5 1332.58 4.48 1330.98 3.48C1330.42 5.84 1329.5 7.88 1328.22 9.6C1330.18 10.6 1331.16 12.12 1331.16 14.16V29.46H1320.84V36.66H1331.16ZM1407.72 46.02V42.06H1418.76V46.02H1425.78V42.06H1434.48V36.36H1425.78V26.94H1400.94V36.36H1392.84V42.06H1400.94V46.02H1407.72ZM1407.72 36.36V32.4H1418.76V36.36H1407.72ZM1404.78 18.96C1406.82 17.08 1409.46 15.44 1412.7 14.04C1415.9 15.44 1418.54 17.08 1420.62 18.96H1404.78ZM1425.78 24.54L1427.04 24.84L1431.54 22.56C1429.1 18 1425.54 14.28 1420.86 11.4C1425.38 10.28 1430.46 9.54 1436.1 9.18C1434.58 7.66 1433.18 5.58 1431.9 2.94C1424.38 3.66 1417.86 5.14 1412.34 7.38C1407.14 5.5 1400.78 4.14 1393.26 3.3C1392.62 5.42 1391.64 7.42 1390.32 9.3C1395.28 9.66 1400.04 10.36 1404.6 11.4C1401.92 13.16 1399.48 15.36 1397.28 18L1399.8 18.96H1393.26V24.54H1425.78ZM1412.88 59.7C1413.76 57.98 1414.52 56.1 1415.16 54.06H1435.08V47.4H1391.58V38.04C1391.58 22.16 1389.66 10.48 1385.82 3C1384.06 4.32 1381.86 5.36 1379.22 6.12C1382.7 12.72 1384.44 23.36 1384.44 38.04V54.06H1407C1406.48 55.74 1406 57.08 1405.56 58.08L1412.88 59.7Z" fill="url(#paint0_linear_2014_909)"/>
<defs>
<linearGradient id="paint0_linear_2014_909" x1="718.304" y1="56.28" x2="717.827" y2="4.27956" gradientUnits="userSpaceOnUse">
<stop stop-color="white" stop-opacity="0"/>
<stop offset="1" stop-color="white" stop-opacity="0.2"/>
</linearGradient>
</defs>
</svg>
