<svg width="1613" height="153" viewBox="0 0 1613 153" fill="none" xmlns="http://www.w3.org/2000/svg">
<path d="M-1.51694e-05 17.16V133.38H40.872C66.3 133.38 87.36 124.176 87.36 95.472C87.36 67.86 66.144 55.692 41.496 55.692H27.924V17.16H-1.51694e-05ZM27.924 77.688H40.092C53.664 77.688 60.216 84.084 60.216 95.472C60.216 107.172 52.728 111.228 39.312 111.228H27.924V77.688ZM121.589 14.976C105.209 14.976 95.2246 27.144 95.2246 41.964C95.2246 60.684 109.889 70.824 144.521 74.568C143.897 81.744 140.153 85.956 131.105 85.956C124.085 85.956 116.753 83.148 107.861 78.156L98.1886 96.408C109.889 103.428 122.525 108.108 136.409 108.108C159.341 108.108 172.289 95.316 172.289 67.548V17.16H149.669L147.797 26.052H147.017C139.685 19.5 131.417 14.976 121.589 14.976ZM131.105 36.504C136.721 36.504 140.465 39.156 144.521 43.524V57.72C127.205 55.536 121.589 50.388 121.589 44.148C121.589 39 125.333 36.504 131.105 36.504ZM193.73 17.16V105.924H216.35L218.378 90.48H218.846C225.398 102.336 235.226 108.108 244.118 108.108C249.422 108.108 252.386 107.328 254.882 106.236L250.358 82.368C247.082 83.148 244.43 83.772 240.53 83.772C233.978 83.772 226.022 79.56 221.498 67.86V17.16H193.73ZM301.037 14.976C278.729 14.976 269.681 29.172 269.681 50.076V84.24H257.669V104.832L271.397 105.924L274.517 129.48H297.449V105.924H318.353V84.24H297.449V50.388C297.449 40.56 302.129 36.66 308.681 36.66C311.489 36.66 314.609 37.596 316.793 38.376L321.161 18.252C316.481 16.848 310.085 14.976 301.037 14.976ZM407.559 14.976C382.911 14.976 366.375 35.568 366.375 74.256C366.375 112.944 382.911 132.6 407.559 132.6C432.051 132.6 448.587 112.788 448.587 74.256C448.587 35.568 432.051 14.976 407.559 14.976ZM407.559 36.504C415.827 36.504 422.379 43.68 422.379 74.256C422.379 104.832 415.827 111.072 407.559 111.072C399.291 111.072 392.583 104.832 392.583 74.256C392.583 43.68 399.291 36.504 407.559 36.504ZM507.301 17.16V43.524H458.473V62.868L498.877 130.416H533.197V64.74H545.989V43.524H533.197V17.16H507.301ZM507.301 64.74V81.276C507.301 88.608 507.925 99.84 508.237 107.172H507.613C504.649 100.62 501.529 94.224 498.253 87.516L484.993 64.74H507.301ZM593.552 52.572V72.072H637.7V52.572H593.552ZM741.959 146.016L765.671 151.476C769.103 146.952 772.691 140.712 774.563 135.876H824.951V114.348H787.979L810.131 107.484L797.963 91.572H827.915V69.42H721.055C721.055 48.984 717.935 18.564 702.959 2.5928e-06C699.215 4.524 688.919 13.416 683.927 16.38C696.251 31.824 697.187 53.976 697.187 69.732V91.572H727.763C725.267 97.032 721.523 103.428 717.935 108.42L731.663 114.348H696.407V135.876H747.575C745.859 139.464 743.831 143.052 741.959 146.016ZM740.399 91.572H773.939C777.683 98.124 781.739 107.172 784.079 114.348H739.931C744.299 108.576 748.823 101.556 750.851 96.252L740.399 91.572ZM889.535 122.928V106.86H940.235V122.928H889.535ZM867.695 144.612H963.479V85.332H867.695V144.612ZM846.947 74.256H908.879V2.964H886.259V9.828H868.319V2.34H846.947V74.256ZM868.319 31.512H886.259V52.572H868.319V31.512ZM919.955 74.256H983.447V2.964H960.671V9.828H941.639V2.34H919.955V74.256ZM941.639 31.512H960.671V52.572H941.639V31.512ZM1005.91 145.236H1057.39V26.208C1057.39 16.536 1056.14 10.296 1050.53 6.552C1045.07 2.808 1038.05 2.34 1028.06 2.34C1027.6 8.268 1024.94 18.564 1022.14 24.18C1026.82 23.868 1032.28 24.024 1034.15 24.024C1035.86 24.024 1036.49 24.648 1036.49 26.676V53.508H1024.94C1023.54 35.1 1020.42 16.068 1014.18 2.028C1010.28 5.304 1001.08 10.452 995.927 12.324C1005.29 33.54 1005.91 65.052 1005.91 87.984V145.236ZM1026.19 124.332V110.448H1036.49V124.332H1026.19ZM1026.19 89.544V87.984L1026.04 74.88H1036.49V89.544H1026.19ZM1119.17 69.732H1103.1C1105.6 63.336 1108.56 57.252 1112.3 51.636C1115.11 57.252 1117.3 63.336 1119.17 69.732ZM1063.32 145.236H1138.67V114.972C1138.67 105.456 1136.64 100.152 1129.31 97.344C1122.29 94.536 1112.77 94.536 1100.92 94.536C1099.98 100.308 1097.02 108.108 1094.36 113.412C1101.23 112.944 1111.21 112.944 1113.55 113.1C1116.05 113.1 1116.98 113.568 1116.98 115.44V124.332H1084.69V90.168H1126.66L1130.24 90.792L1143.66 86.58C1140.54 65.676 1134.77 48.36 1126.5 34.32C1132.74 28.392 1140.07 23.4 1148.03 19.812C1143.35 15.756 1137.11 7.8 1133.99 2.34C1126.5 6.396 1119.79 11.388 1113.86 17.316C1108.4 11.388 1102.16 6.396 1095.14 2.184C1092.8 6.24 1088.59 12.168 1084.69 16.224V2.34H1063.32V145.236ZM1100.6 33.852C1094.05 43.836 1088.9 55.224 1084.69 67.548V20.124C1090.62 23.712 1095.92 28.236 1100.6 33.852ZM1211.83 75.816L1235.39 73.944C1234.76 70.356 1233.83 67.08 1233.05 63.804H1289.52C1289.52 63.804 1289.05 57.876 1288.43 55.068C1285 29.172 1280.94 16.38 1274.7 10.92C1269.55 6.084 1263.94 4.836 1255.82 4.368C1249.58 3.9 1238.98 3.9 1228.21 4.368C1227.9 10.14 1224.94 18.408 1221.04 23.712C1231.64 22.776 1243.66 22.62 1248.65 22.62C1252.08 22.62 1254.42 22.776 1256.6 24.336C1259.57 26.52 1262.22 33.072 1264.56 44.616H1225.72C1214.8 23.088 1196.86 10.296 1170.02 2.496C1167.68 7.332 1160.82 16.848 1156.61 21.06C1176.73 25.272 1190.93 32.76 1200.13 44.616H1166.59V63.804H1209.34C1210.43 67.548 1211.21 71.604 1211.83 75.816ZM1254.73 117.624H1202.63L1202.47 117.468C1208.4 111.852 1216.36 107.328 1226.03 103.74C1236.95 107.64 1246.62 112.164 1254.73 117.624ZM1203.41 150.696L1226.34 146.016C1224.31 142.74 1222.13 139.464 1219.94 136.344H1275.64L1279.07 137.28L1293.11 128.388C1284.22 115.128 1271.42 104.52 1256.14 96.252C1269.86 93.912 1285.31 92.664 1301.69 92.04C1297.16 87.204 1291.86 78 1289.21 72.228C1265.34 73.788 1244.44 77.22 1226.65 83.616C1207.31 77.22 1185.94 73.008 1164.25 70.512C1162.69 76.128 1158.95 85.176 1155.52 90.168C1170.8 91.416 1185.94 93.444 1199.98 96.564C1195.61 99.528 1191.4 102.804 1187.5 106.392C1182.82 103.272 1177.67 100.464 1172.05 97.656C1169.56 102.96 1163.32 111.54 1159.1 115.284C1181.41 124.488 1195.61 137.592 1203.41 150.696ZM1376.1 47.424L1387.8 55.068H1372.04V75.816H1419.94V87.36H1368.61V108.264H1402.78V117.936H1377.5V138.372H1402.78V150.696H1424.3V138.372H1450.51V117.936H1424.3V108.264H1456.91V87.36H1441.46V75.816H1455.04V55.068H1441.46V26.832C1441.46 16.068 1439.59 9.984 1432.88 6.552C1426.18 3.12 1417.28 2.652 1406.05 2.652C1405.27 9.204 1402.46 18.876 1399.66 25.116C1406.05 24.804 1414.32 24.804 1416.66 24.804C1419.16 24.804 1419.94 25.272 1419.94 27.3V55.068H1394.66C1400.28 48.672 1406.52 40.716 1409.48 35.1L1392.32 23.4C1389.36 29.952 1382.03 40.092 1376.1 47.424ZM1314.79 138.06L1332.26 134.784L1331.17 121.056H1335.07V150.54H1356.6V121.056H1366.9V99.528H1356.6V74.568L1366.9 77.22L1368.61 56.316L1356.6 52.572V2.34H1335.07V46.176L1315.26 40.404L1310.58 63.492C1317.29 64.896 1325.87 66.768 1335.07 69.108V99.528H1328.36C1327.12 91.572 1325.71 84.24 1324 78.468C1320.25 81.12 1311.98 84.864 1307.62 86.58C1311.52 98.904 1314.01 119.34 1314.79 138.06ZM1529.76 86.268H1504.49V72.384H1529.76V86.268ZM1551.91 86.268V72.384H1575.31V86.268H1551.91ZM1546.3 119.34H1514.47C1511.04 115.128 1507.3 110.916 1503.4 107.016H1534.91C1538.65 110.604 1542.71 114.972 1546.3 119.34ZM1511.51 152.1L1531.94 144.144L1528.98 139.308H1562.21L1566.58 140.556L1581.08 129.636C1575.62 122.304 1569.07 114.348 1562.21 107.016H1597.62V46.644H1593.41C1598.87 43.68 1607.29 40.716 1612.91 39.78C1609.16 13.104 1601.68 5.46 1573.75 5.46C1565.8 5.46 1531.16 5.46 1523.83 5.46C1492.16 5.46 1482.65 11.7 1482.65 36.66V88.452L1475.94 83.616C1473.91 88.764 1467.83 100.152 1464.08 105.3C1482.18 115.908 1500.9 133.536 1511.51 152.1ZM1591.54 46.644H1575.31V50.856H1504.49V36.816C1504.49 27.144 1506.83 25.896 1523.83 25.896C1531.79 25.896 1563.77 25.896 1572.35 25.896C1586.86 25.896 1589.35 28.704 1591.54 46.644Z" fill="url(#paint0_linear_2003_45)" fill-opacity="0.4"/>
<defs>
<linearGradient id="paint0_linear_2003_45" x1="780.032" y1="135.16" x2="780.563" y2="58.0662" gradientUnits="userSpaceOnUse">
<stop stop-color="white" stop-opacity="0"/>
<stop offset="1" stop-color="#4FCDFF" stop-opacity="0.6"/>
</linearGradient>
</defs>
</svg>
