<svg width="647" height="162" viewBox="0 0 647 162" fill="none" xmlns="http://www.w3.org/2000/svg">
<path d="M76.272 138.264L92.232 151.872C100.968 144.816 112.392 134.4 117.432 127.008L100.296 111.888C95.928 119.28 85.176 130.536 76.272 138.264ZM70.392 93.7441L86.016 107.688C95.088 100.632 107.016 90.2161 112.392 82.8241L95.592 67.2C90.72 74.76 79.464 86.016 70.392 93.7441ZM57.624 160.104L70.896 140.112C64.176 137.76 56.952 135.744 49.56 134.064V113.904H70.224V91.224H49.56V90.72C53.928 86.856 67.368 72.576 70.56 68.88L56.616 49.728C54.936 53.592 52.416 58.632 49.56 63.672V1.51204H25.872V53.424C21.336 43.176 16.464 33.936 11.088 26.88C8.90398 33.936 3.69598 44.184 -1.94311e-05 50.4C8.73598 60.648 16.968 76.6081 22.68 91.224H2.01598V113.904H25.872V129.528L9.40798 127.344C8.56798 132.72 5.54398 140.952 3.02398 146.16C22.344 149.016 43.008 154.224 57.624 160.104ZM66.864 53.424L119.28 62.832V161.28H143.304V67.032L158.424 69.72L162.12 46.704L143.304 43.344V1.68005H119.28V38.976L70.728 30.072L66.864 53.424ZM289.296 130.536H275.184V93.072H289.296V130.536ZM237.72 93.072H252.336V130.536H241.92V153.216H325.92V130.536H312.48V93.072H329.28V70.056H312.48V1.51204H289.296V70.056H274.68C273.336 45.36 268.296 17.64 251.664 4.55379e-05C247.632 4.20005 238.728 11.088 233.352 14.112C246.288 28.392 250.488 50.568 251.832 70.056H237.72V93.072ZM172.032 153.888H234.528V131.88H210.84C208.656 121.8 205.968 111.552 202.776 101.808H233.016V21.504H201.6V9.57605H181.608V57.792C179.76 55.272 177.912 52.92 176.064 50.736C175.392 57.288 171.36 73.248 168.168 80.4721C177.912 93.2401 184.128 111.888 188.16 131.88H172.032V153.888ZM201.6 80.4721V42.84H212.352V80.4721H201.6ZM432.6 97.1041H457.128V63.0001C457.128 38.976 444.528 14.952 397.32 0.672046C394.296 5.71205 387.072 14.616 381.696 19.32C426.216 29.568 432.6 47.544 432.6 63.336V97.1041ZM448.392 27.888L463.512 42.336C474.768 35.952 490.896 25.872 498.792 18.816L482.496 2.52005C475.44 9.74405 459.984 20.664 448.392 27.888ZM335.832 55.104L357 59.976V120.96H338.688V143.976H396.312V120.96H381.192V65.856L396.816 69.72L399.672 49.392C379.68 42.168 358.512 34.776 341.544 29.064L335.832 55.104ZM401.856 122.976H424.704C425.88 126.336 427.056 130.032 428.232 133.56H398.16V155.232H495.768V133.56H456.624L450.576 122.976H488.88V44.184H463.848V101.64H425.712V43.344H401.856V122.976ZM548.184 91.224V75.768H620.424V91.224H548.184ZM548.184 114.24H620.424V128.856H548.184V114.24ZM548.184 52.752V37.632H620.424V52.752H548.184ZM523.488 152.712H646.464V3.86405H620.424V13.776H548.184V3.86405H523.488V152.712Z" fill="url(#paint0_linear_2007_144)" fill-opacity="0.4"/>
<defs>
<linearGradient id="paint0_linear_2007_144" x1="324.49" y1="140.472" x2="325.777" y2="63.3961" gradientUnits="userSpaceOnUse">
<stop stop-color="white" stop-opacity="0"/>
<stop offset="1" stop-color="#4FCDFF" stop-opacity="0.6"/>
</linearGradient>
</defs>
</svg>
