<svg width="42" height="60" viewBox="0 0 42 60" fill="none" xmlns="http://www.w3.org/2000/svg">
<path d="M31.7541 45.2043C31.069 45.0191 30.3629 45.4245 30.1778 46.1096C29.9923 46.795 30.398 47.5008 31.0831 47.6859C35.362 48.843 37.2772 50.4718 37.2772 51.5726C37.2772 52.4219 36.1168 53.7437 32.8593 54.907C29.5956 56.0728 25.2301 56.7144 20.5669 56.7144C15.9036 56.7144 11.5376 56.0728 8.27397 54.907C5.01656 53.7437 3.85623 52.4219 3.85623 51.5726C3.85623 50.4715 5.77236 48.8421 10.0532 47.6851C10.7386 47.4998 11.1441 46.7944 10.9588 46.1089C10.7737 45.4239 10.0682 45.0181 9.38279 45.2034C4.16098 46.6146 1.28525 48.8764 1.28525 51.5726C1.28525 53.147 2.30238 54.3362 3.1558 55.0566C4.17984 55.9215 5.61117 56.6858 7.40936 57.328C10.9436 58.5902 15.6162 59.2854 20.5665 59.2854C25.5173 59.2854 30.1898 58.5898 33.7241 57.328C35.5223 56.6858 36.9535 55.9215 37.9777 55.0566C38.8311 54.3362 39.8483 53.147 39.8483 51.5726C39.8483 48.8773 36.9739 46.6154 31.7543 45.2043H31.7541ZM15.2961 48.0837C16.6683 49.6564 18.5903 50.5577 20.5764 50.5577H20.5767C22.5705 50.5577 24.4909 49.6491 25.8548 48.0634C26.2685 47.6125 29.7857 43.7398 33.3499 38.6678C38.5147 31.3184 41.1333 25.2282 41.1333 20.5669C41.1333 17.7915 40.5894 15.0975 39.5163 12.5606C38.4802 10.1112 36.9976 7.91162 35.1094 6.02373C33.2215 4.13596 31.0224 2.65307 28.573 1.61736C26.0358 0.544219 23.3419 0 20.5668 0C17.7914 0 15.0974 0.544277 12.5605 1.61736C10.1112 2.65318 7.91156 4.13602 6.02373 6.02373C4.1359 7.91197 2.65307 10.1112 1.61736 12.5606C0.544219 15.0976 0 17.7915 0 20.5669C0 25.2281 2.62055 31.3202 7.78881 38.674C11.3775 43.7803 14.9186 47.6722 15.2961 48.0837ZM12.5926 19.9918C12.5926 15.4554 16.2833 11.7649 20.8192 11.7649C25.3556 11.7649 29.046 15.4555 29.046 19.9918C29.046 24.5278 25.3557 28.2186 20.8192 28.2186C16.2833 28.2186 12.5926 24.5278 12.5926 19.9918Z" fill="#403031"/>
</svg>
