<svg width="1398" height="164" viewBox="0 0 1398 164" fill="none" xmlns="http://www.w3.org/2000/svg">
<path d="M-0.000241697 16.8V141.96H44.0158C71.3998 141.96 94.0798 132.048 94.0798 101.136C94.0798 71.4001 71.2318 58.2961 44.6878 58.2961H30.0718V16.8H-0.000241697ZM30.0718 81.9841H43.1758C57.7918 81.9841 64.8478 88.8721 64.8478 101.136C64.8478 113.736 56.7838 118.104 42.3358 118.104H30.0718V81.9841ZM130.941 14.448C113.301 14.448 102.549 27.552 102.549 43.5121C102.549 63.6721 118.341 74.5921 155.637 78.6241C154.965 86.3521 150.933 90.8881 141.189 90.8881C133.629 90.8881 125.733 87.8641 116.157 82.4881L105.741 102.144C118.341 109.704 131.949 114.744 146.901 114.744C171.597 114.744 185.541 100.968 185.541 71.0641V16.8H161.181L159.165 26.376H158.325C150.429 19.32 141.525 14.448 130.941 14.448ZM141.189 37.632C147.237 37.632 151.269 40.488 155.637 45.1921V60.4801C136.989 58.128 130.941 52.5841 130.941 45.8641C130.941 40.32 134.973 37.632 141.189 37.632ZM208.632 16.8V112.392H232.992L235.176 95.7601H235.68C242.736 108.528 253.32 114.744 262.896 114.744C268.608 114.744 271.8 113.904 274.488 112.728L269.616 87.0241C266.088 87.8641 263.232 88.5361 259.032 88.5361C251.976 88.5361 243.408 84 238.536 71.4001V16.8H208.632ZM324.194 14.448C300.17 14.448 290.426 29.7361 290.426 52.2481V89.0401H277.49V111.216L292.274 112.392L295.634 137.76H320.33V112.392H342.842V89.0401H320.33V52.5841C320.33 42 325.37 37.8 332.426 37.8C335.45 37.8 338.81 38.8081 341.162 39.6481L345.866 17.976C340.826 16.464 333.938 14.448 324.194 14.448ZM438.909 14.448C412.365 14.448 394.557 36.6241 394.557 78.2881C394.557 119.952 412.365 141.12 438.909 141.12C465.285 141.12 483.093 119.784 483.093 78.2881C483.093 36.6241 465.285 14.448 438.909 14.448ZM438.909 37.632C447.813 37.632 454.869 45.36 454.869 78.2881C454.869 111.216 447.813 117.936 438.909 117.936C430.005 117.936 422.781 111.216 422.781 78.2881C422.781 45.36 430.005 37.632 438.909 37.632ZM536.916 14.448C517.092 14.448 503.148 21.336 494.076 31.92L507.852 50.7361C515.412 43.6801 524.148 38.6401 533.892 38.6401C545.484 38.6401 553.044 43.3441 553.044 52.0801C553.044 62.3281 547.332 68.3761 521.124 68.3761V89.5441C542.46 89.5441 549.18 95.9281 549.18 105C549.18 113.232 544.14 117.768 534.9 117.768C526.5 117.768 520.116 113.904 512.556 107.184L497.436 125.496C509.028 135.072 521.46 141.12 536.244 141.12C562.116 141.12 579.084 128.856 579.084 107.352C579.084 95.0881 572.196 86.0161 559.092 80.4721V79.6321C572.868 75.6001 583.116 65.6881 583.116 50.0641C583.116 27.216 561.78 14.448 536.916 14.448ZM639.21 54.9361V75.9361H686.754V54.9361H639.21ZM780.889 157.248L807.937 149.688C797.017 122.304 779.041 95.4241 761.737 78.96C756.697 83.8321 745.105 92.5681 738.721 96.6001C756.361 110.208 772.321 133.56 780.889 157.248ZM852.121 158.424C861.697 138.768 881.185 115.248 897.481 100.296C891.097 95.4241 881.857 85.8481 877.153 79.2961C860.353 97.6081 840.865 124.152 827.929 148.68L852.121 158.424ZM757.873 7.72805C756.529 12.936 751.825 26.376 748.465 33.6C754.513 35.28 758.209 38.976 764.761 46.3681C771.985 53.7601 792.313 82.6561 804.241 111.048L831.793 99.4561C820.201 77.2801 805.249 56.1121 790.297 38.6401L844.225 42.5041L831.961 61.6561L855.313 72.2401C868.921 53.4241 884.209 29.4 892.441 13.272L867.745 4.85778e-05C865.225 5.54405 861.865 12.432 857.665 19.656C779.881 12.264 767.281 11.592 757.873 7.72805ZM915.793 118.776H1014.24V97.6081H915.793V118.776ZM913.945 150.696H1055.06V30.072C1055.06 16.968 1052.88 9.74405 1044.98 5.54405C1037.26 1.34405 1026.5 0.672049 1011.05 0.840048C1010.38 8.06405 1006.68 20.328 1003.32 27.216C1011.72 26.544 1022.47 26.544 1025.66 26.712C1028.69 26.712 1029.86 27.552 1029.86 30.576V127.512H913.945V150.696ZM947.209 67.5361V50.2321H982.993V67.5361H947.209ZM923.353 88.3681H1007.02V29.4H947.209V17.304H923.353V88.3681ZM1173.84 89.5441H1199.88V1.00805H1173.84V89.5441ZM1110.34 89.2081H1136.21V71.4001C1136.21 49.056 1132.51 19.824 1099.42 0.672049C1095.05 6.38405 1085.14 14.952 1078.58 18.984C1107.14 34.44 1110.34 55.44 1110.34 72.0721V89.2081ZM1152.17 163.296L1171.99 149.184L1168.63 144.648C1183.08 128.856 1208.11 116.592 1236.67 110.712C1230.79 105.168 1222.9 94.4161 1219.2 87.3601C1192.32 94.9201 1169.98 108.696 1153.01 127.344C1134.36 109.536 1109.66 93.9121 1085.81 84.6721C1082.62 91.7281 1076.4 101.976 1070.86 108.36C1103.62 117.6 1136.38 139.608 1152.17 163.296ZM1241.71 29.7361C1257 32.2561 1280.35 37.128 1302.53 41.832L1304.88 21.84C1284.55 16.464 1263.05 10.92 1245.91 6.72005L1241.71 29.7361ZM1246.92 85.3441C1245.74 89.8801 1242.05 100.968 1239.36 107.184C1243.39 108.192 1246.42 111.384 1250.45 116.76C1254.48 121.632 1267.08 141.792 1273.8 160.776L1295.64 149.856C1288.75 135.912 1279.34 120.96 1269.26 108.528L1283.38 109.368C1286.74 114.576 1289.93 119.952 1292.78 125.328L1311.6 112.728C1302.86 98.9521 1292.28 85.176 1281.19 72.9121L1307.23 77.1121C1306.39 71.0641 1306.06 62.1601 1306.39 57.2881C1261.87 49.056 1253.81 46.872 1248.77 44.016C1247.76 48.216 1244.23 58.6321 1241.71 64.3441C1246.58 65.5201 1250.45 68.88 1256.16 74.7601C1258.85 77.2801 1263.55 82.4881 1269.1 89.3761C1254.14 87.8641 1249.78 86.6881 1246.92 85.3441ZM1313.95 73.2481H1394.09V1.51205H1369.9V7.22405H1336.8V0.840048H1313.95V73.2481ZM1336.8 28.896H1369.9V51.5761H1336.8V28.896ZM1310.09 152.544H1397.11C1397.11 152.544 1396.94 146.664 1396.78 143.808C1395.77 108.024 1394.26 92.4001 1389.89 86.6881C1386.02 81.8161 1381.99 80.136 1376.62 79.1281C1371.91 78.2881 1364.52 78.1201 1356.62 78.2881C1356.29 85.176 1353.6 94.5841 1349.9 100.632C1355.78 100.128 1361.16 99.9601 1364.18 99.9601C1366.54 99.9601 1368.05 100.464 1369.56 102.144C1371.41 104.328 1372.42 112.224 1373.09 130.536H1352.26C1349.4 106.008 1341.67 86.8561 1314.46 74.7601C1311.94 80.4721 1305.72 89.0401 1300.51 93.4081C1320.84 101.808 1326.38 114.24 1328.4 130.536H1310.09V152.544Z" fill="url(#paint0_linear_2003_42)" fill-opacity="0.4"/>
<defs>
<linearGradient id="paint0_linear_2003_42" x1="676.536" y1="139.8" x2="677.145" y2="62.7075" gradientUnits="userSpaceOnUse">
<stop stop-color="white" stop-opacity="0"/>
<stop offset="1" stop-color="#4FCDFF" stop-opacity="0.6"/>
</linearGradient>
</defs>
</svg>
